<svg width="20" height="19" viewBox="0 0 20 19" fill="none" xmlns="http://www.w3.org/2000/svg">
<path fill-rule="evenodd" clip-rule="evenodd" d="M18.25 0.5H1.75C0.921573 0.5 0.25 1.17157 0.25 2V17C0.246538 17.584 0.585463 18.1158 1.11625 18.3594C1.31483 18.4516 1.53106 18.4996 1.75 18.5C2.10213 18.4992 2.44258 18.3736 2.71094 18.1456C2.71541 18.1427 2.7195 18.1392 2.72312 18.1353L5.73438 15.5H18.25C19.0784 15.5 19.75 14.8284 19.75 14V2C19.75 1.17157 19.0784 0.5 18.25 0.5ZM18.25 14H5.73438C5.38115 13.9998 5.03919 14.1243 4.76875 14.3516L4.7575 14.3619L1.75 17V2H18.25V14ZM6.25 6.5C6.25 6.08579 6.58579 5.75 7 5.75H13C13.4142 5.75 13.75 6.08579 13.75 6.5C13.75 6.91421 13.4142 7.25 13 7.25H7C6.58579 7.25 6.25 6.91421 6.25 6.5ZM6.25 9.5C6.25 9.08579 6.58579 8.75 7 8.75H13C13.4142 8.75 13.75 9.08579 13.75 9.5C13.75 9.91421 13.4142 10.25 13 10.25H7C6.58579 10.25 6.25 9.91421 6.25 9.5Z" fill="#120D1C"/>
</svg>
