<svg width="14" height="18" viewBox="0 0 14 18" fill="none" xmlns="http://www.w3.org/2000/svg">
<path fill-rule="evenodd" clip-rule="evenodd" d="M7 12.75C9.07018 12.7478 10.7478 11.0702 10.75 9V4C10.75 1.92893 9.07107 0.25 7 0.25C4.92893 0.25 3.25 1.92893 3.25 4V9C3.25215 11.0702 4.92982 12.7478 7 12.75ZM4.5 4C4.5 2.61929 5.61929 1.5 7 1.5C8.38071 1.5 9.5 2.61929 9.5 4V9C9.5 10.3807 8.38071 11.5 7 11.5C5.61929 11.5 4.5 10.3807 4.5 9V4ZM7.625 15.2188V17.125C7.625 17.4702 7.34518 17.75 7 17.75C6.65482 17.75 6.375 17.4702 6.375 17.125V15.2188C3.18323 14.894 0.753942 12.2082 0.75 9C0.75 8.65482 1.02982 8.375 1.375 8.375C1.72018 8.375 2 8.65482 2 9C2 11.7614 4.23858 14 7 14C9.76142 14 12 11.7614 12 9C12 8.65482 12.2798 8.375 12.625 8.375C12.9702 8.375 13.25 8.65482 13.25 9C13.2461 12.2082 10.8168 14.894 7.625 15.2188Z" fill="#665491"/>
</svg>
