<svg width="24" height="24" viewBox="0 0 24 24" fill="none" xmlns="http://www.w3.org/2000/svg">
<path d="M5.26758 9.57353H3.58008C2.6481 9.57353 1.89258 8.81001 1.89258 7.86816V7.64049C1.89258 6.74189 2.41623 5.92759 3.22877 5.56263L11.1038 2.02557C11.6855 1.76426 12.3496 1.76426 12.9314 2.02557L20.8064 5.56263C21.6189 5.92759 22.1426 6.74189 22.1426 7.64049V7.86816C22.1426 8.81001 21.3871 9.57353 20.4551 9.57353H18.7676M5.26758 9.57353V17.5319M5.26758 9.57353H9.76758M5.26758 17.5319H3.58008C2.6481 17.5319 1.89258 18.2955 1.89258 19.2373V20.3742C1.89258 21.3161 2.6481 22.0796 3.58008 22.0796H20.4551C21.3871 22.0796 22.1426 21.3161 22.1426 20.3742V19.2373C22.1426 18.2955 21.3871 17.5319 20.4551 17.5319H18.7676M5.26758 17.5319H9.76758M18.7676 9.57353V17.5319M18.7676 9.57353H14.2676M18.7676 17.5319H14.2676M14.2676 9.57353V17.5319M14.2676 9.57353H9.76758M14.2676 17.5319H9.76758M9.76758 9.57353V17.5319" stroke="black" stroke-width="2" stroke-linecap="round" stroke-linejoin="round"/>
</svg>
