<svg width="26" height="26" viewBox="0 0 26 26" fill="none" xmlns="http://www.w3.org/2000/svg">
<path d="M13.0176 16.8385C14.2607 16.8385 15.2676 15.9992 15.2676 14.9642C15.2676 13.9292 14.2607 13.0889 13.0176 13.0889C11.7745 13.0889 10.7676 12.2496 10.7676 11.2135C10.7676 10.1785 11.7745 9.33924 13.0176 9.33924M13.0176 16.8385C11.7745 16.8385 10.7676 15.9992 10.7676 14.9642M13.0176 16.8385V17.5889M13.0176 9.33924V8.58887M13.0176 9.33924C14.2607 9.33924 15.2676 10.1785 15.2676 11.2135" stroke="black" stroke-width="2" stroke-linecap="round"/>
<path d="M18.6426 3.34413C16.9332 2.35495 14.9925 1.83563 13.0176 1.83888C6.8042 1.83888 1.76758 6.87551 1.76758 13.0889C1.76758 14.8889 2.19058 16.5899 2.94095 18.0985C3.1412 18.499 3.20758 18.9569 3.0917 19.39L2.42233 21.8943C2.35603 22.1421 2.35609 22.403 2.4225 22.6508C2.48891 22.8986 2.61934 23.1246 2.80068 23.306C2.98203 23.4875 3.20792 23.618 3.45567 23.6846C3.70343 23.7512 3.96433 23.7514 4.2122 23.6853L6.71645 23.0148C7.15113 22.9049 7.61098 22.9582 8.00908 23.1644C9.5649 23.939 11.2796 24.3411 13.0176 24.3389C19.231 24.3389 24.2676 19.3023 24.2676 13.0889C24.2676 11.0403 23.7197 9.11763 22.7623 7.46388" stroke="black" stroke-width="2" stroke-linecap="round"/>
</svg>
